#define font_width 128
#define font_height 64
static unsigned char font_bits[] = {
   0x00, 0x11, 0x55, 0x55, 0xff, 0x34, 0x00, 0x34, 0x3c, 0x7f, 0xf3, 0xde,
   0x7b, 0x00, 0x00, 0x00, 0x00, 0x00, 0x00, 0xaa, 0x55, 0x34, 0x00, 0x34,
   0x66, 0x46, 0x46, 0x8c, 0x21, 0x3c, 0x00, 0x3c, 0x00, 0x44, 0xaa, 0x55,
   0xff, 0x34, 0xff, 0xf7, 0x66, 0x46, 0x46, 0x8c, 0x21, 0xc2, 0xff, 0x43,
   0x00, 0x00, 0x00, 0xaa, 0xaa, 0x34, 0x00, 0x00, 0x66, 0x06, 0x4e, 0x0c,
   0x13, 0x02, 0x00, 0x40, 0x00, 0x11, 0x55, 0x55, 0xff, 0x34, 0xff, 0xf7,
   0x66, 0x06, 0x4e, 0x0c, 0x13, 0xe2, 0xff, 0x63, 0x00, 0x00, 0x00, 0xaa,
   0x55, 0x34, 0xff, 0xf7, 0x06, 0x06, 0x5e, 0x0c, 0x0e, 0xf2, 0xff, 0x73,
   0x00, 0x44, 0xaa, 0x55, 0xff, 0x34, 0x00, 0x34, 0x06, 0x06, 0x5a, 0x0c,
   0x0e, 0x3c, 0x00, 0x3c, 0x00, 0x00, 0x00, 0xaa, 0xaa, 0x34, 0x00, 0x34,
   0x76, 0x3e, 0x7a, 0x0c, 0x06, 0x00, 0x00, 0x00, 0x34, 0x00, 0x00, 0x34,
   0x34, 0x00, 0x34, 0x34, 0x66, 0x06, 0x72, 0x0c, 0x0c, 0x00, 0x00, 0x05,
   0x34, 0x00, 0x00, 0x34, 0x34, 0x00, 0x34, 0x34, 0x66, 0x06, 0x72, 0x0c,
   0x0e, 0x00, 0x00, 0x00, 0xf4, 0xf8, 0x1f, 0x37, 0xf4, 0xff, 0x37, 0xf7,
   0x66, 0x06, 0x62, 0x0c, 0x0e, 0xbb, 0x70, 0x05, 0x04, 0x04, 0x30, 0x30,
   0x04, 0x00, 0x30, 0x00, 0x66, 0x06, 0x62, 0x0c, 0x19, 0xcc, 0x48, 0x05,
   0xfc, 0xf4, 0x37, 0x3f, 0xf4, 0xf7, 0x37, 0xff, 0x66, 0x06, 0x42, 0x0c,
   0x19, 0x66, 0x70, 0x05, 0xf8, 0xf4, 0x37, 0x1f, 0xf4, 0xf7, 0x37, 0xff,
   0x66, 0x46, 0x42, 0x8c, 0x30, 0xbb, 0x00, 0x01, 0x00, 0x34, 0x34, 0x00,
   0x34, 0x34, 0x34, 0x00, 0x66, 0x46, 0x42, 0x8c, 0x30, 0x00, 0x80, 0x00,
   0x00, 0x34, 0x34, 0x00, 0x34, 0x34, 0x34, 0x00, 0x3c, 0x7f, 0x4f, 0xde,
   0x7b, 0x00, 0x00, 0x00, 0x00, 0x0c, 0x36, 0x36, 0x0c, 0x00, 0x0e, 0x18,
   0x18, 0x0c, 0x08, 0x00, 0x00, 0x00, 0x00, 0x30, 0x00, 0x0c, 0x36, 0x36,
   0x3e, 0x1b, 0x1b, 0x18, 0x0c, 0x18, 0x1c, 0x08, 0x00, 0x00, 0x00, 0x30,
   0x00, 0x0c, 0x12, 0x7f, 0x03, 0x18, 0x0e, 0x08, 0x06, 0x30, 0x08, 0x08,
   0x00, 0x00, 0x00, 0x18, 0x00, 0x0c, 0x00, 0x36, 0x3e, 0x0c, 0x7b, 0x00,
   0x06, 0x30, 0x14, 0x3e, 0x00, 0x3e, 0x00, 0x0c, 0x00, 0x0c, 0x00, 0x7f,
   0x60, 0x0c, 0x33, 0x00, 0x06, 0x30, 0x00, 0x08, 0x00, 0x00, 0x00, 0x06,
   0x00, 0x00, 0x00, 0x36, 0x3e, 0x06, 0x33, 0x00, 0x0c, 0x18, 0x00, 0x08,
   0x18, 0x00, 0x18, 0x03, 0x00, 0x0c, 0x00, 0x36, 0x0c, 0x36, 0x6e, 0x00,
   0x18, 0x0c, 0x00, 0x00, 0x18, 0x00, 0x18, 0x03, 0x00, 0x00, 0x00, 0x00,
   0x00, 0x00, 0x00, 0x00, 0x00, 0x00, 0x00, 0x00, 0x08, 0x00, 0x00, 0x00,
   0x3e, 0x0c, 0x3e, 0x3e, 0x66, 0x7f, 0x3e, 0x7f, 0x3e, 0x3e, 0x00, 0x00,
   0x00, 0x00, 0x00, 0x3e, 0x63, 0x0e, 0x63, 0x63, 0x66, 0x03, 0x63, 0x60,
   0x63, 0x63, 0x00, 0x00, 0x18, 0x00, 0x0c, 0x63, 0x73, 0x0c, 0x30, 0x60,
   0x63, 0x3f, 0x03, 0x60, 0x63, 0x63, 0x18, 0x18, 0x0c, 0x3e, 0x18, 0x60,
   0x6b, 0x0c, 0x1c, 0x38, 0x7f, 0x60, 0x3f, 0x30, 0x3e, 0x7e, 0x18, 0x18,
   0x06, 0x00, 0x30, 0x3c, 0x67, 0x0c, 0x06, 0x60, 0x60, 0x60, 0x63, 0x30,
   0x63, 0x60, 0x00, 0x00, 0x0c, 0x3e, 0x18, 0x0c, 0x63, 0x0c, 0x03, 0x63,
   0x60, 0x63, 0x63, 0x18, 0x63, 0x63, 0x18, 0x18, 0x18, 0x00, 0x0c, 0x00,
   0x3e, 0x1e, 0x7f, 0x3e, 0x60, 0x3e, 0x3e, 0x18, 0x3e, 0x3e, 0x18, 0x18,
   0x00, 0x00, 0x00, 0x0c, 0x00, 0x00, 0x00, 0x00, 0x00, 0x00, 0x00, 0x00,
   0x00, 0x00, 0x00, 0x08, 0x00, 0x00, 0x00, 0x00, 0x3e, 0x3e, 0x3f, 0x3e,
   0x3f, 0x7f, 0x7f, 0x7e, 0x63, 0x1e, 0x1e, 0x63, 0x03, 0x63, 0x63, 0x3e,
   0x63, 0x63, 0x63, 0x63, 0x63, 0x43, 0x43, 0x63, 0x63, 0x0c, 0x18, 0x33,
   0x03, 0x77, 0x67, 0x63, 0x7b, 0x63, 0x63, 0x03, 0x63, 0x03, 0x03, 0x03,
   0x63, 0x0c, 0x18, 0x1b, 0x03, 0x7f, 0x6f, 0x63, 0x6b, 0x7f, 0x3f, 0x03,
   0x63, 0x1f, 0x1f, 0x73, 0x7f, 0x0c, 0x18, 0x0f, 0x03, 0x6b, 0x7b, 0x63,
   0x7b, 0x63, 0x63, 0x03, 0x63, 0x03, 0x03, 0x63, 0x63, 0x0c, 0x18, 0x1b,
   0x03, 0x63, 0x73, 0x63, 0x03, 0x63, 0x63, 0x63, 0x63, 0x43, 0x03, 0x63,
   0x63, 0x0c, 0x18, 0x33, 0x03, 0x63, 0x63, 0x63, 0x3e, 0x63, 0x3f, 0x3e,
   0x3f, 0x7f, 0x03, 0x7e, 0x63, 0x1e, 0x0e, 0x63, 0x7f, 0x63, 0x63, 0x3e,
   0x00, 0x00, 0x00, 0x00, 0x00, 0x00, 0x00, 0x00, 0x00, 0x00, 0x00, 0x00,
   0x00, 0x00, 0x00, 0x00, 0x3f, 0x3e, 0x3f, 0x3e, 0x7f, 0x63, 0x63, 0x63,
   0x63, 0x63, 0x7f, 0x1e, 0x03, 0x3c, 0x0c, 0x00, 0x63, 0x63, 0x63, 0x63,
   0x0c, 0x63, 0x63, 0x63, 0x63, 0x63, 0x60, 0x06, 0x03, 0x30, 0x1e, 0x00,
   0x63, 0x63, 0x63, 0x03, 0x0c, 0x63, 0x63, 0x63, 0x36, 0x63, 0x30, 0x06,
   0x06, 0x30, 0x33, 0x00, 0x3f, 0x63, 0x3f, 0x3e, 0x0c, 0x63, 0x63, 0x63,
   0x1c, 0x3e, 0x1c, 0x06, 0x0c, 0x30, 0x00, 0x00, 0x03, 0x63, 0x63, 0x60,
   0x0c, 0x63, 0x36, 0x6b, 0x36, 0x0c, 0x06, 0x06, 0x18, 0x30, 0x00, 0x00,
   0x03, 0x6b, 0x63, 0x63, 0x0c, 0x63, 0x36, 0x6b, 0x63, 0x0c, 0x03, 0x06,
   0x30, 0x30, 0x00, 0x00, 0x03, 0x3e, 0x63, 0x3e, 0x0c, 0x3e, 0x1c, 0x36,
   0x63, 0x0c, 0x7f, 0x1e, 0x30, 0x3c, 0x00, 0x00, 0x00, 0x10, 0x00, 0x00,
   0x00, 0x00, 0x00, 0x00, 0x00, 0x00, 0x00, 0x00, 0x00, 0x00, 0x00, 0xff,
   0x18, 0x00, 0x03, 0x00, 0x60, 0x00, 0x38, 0x00, 0x03, 0x18, 0x18, 0x03,
   0x0c, 0x00, 0x00, 0x00, 0x18, 0x00, 0x03, 0x00, 0x60, 0x00, 0x0c, 0x00,
   0x03, 0x00, 0x00, 0x03, 0x0c, 0x00, 0x00, 0x00, 0x10, 0x3e, 0x3f, 0x3e,
   0x7e, 0x3e, 0x3e, 0x7e, 0x3f, 0x1e, 0x1e, 0x63, 0x0c, 0x3f, 0x3f, 0x3e,
   0x00, 0x60, 0x63, 0x03, 0x63, 0x63, 0x0c, 0x63, 0x63, 0x18, 0x18, 0x3b,
   0x0c, 0x6b, 0x63, 0x63, 0x00, 0x7e, 0x63, 0x03, 0x63, 0x7f, 0x0c, 0x63,
   0x63, 0x18, 0x18, 0x0f, 0x0c, 0x6b, 0x63, 0x63, 0x00, 0x63, 0x63, 0x03,
   0x63, 0x03, 0x0c, 0x7e, 0x63, 0x18, 0x18, 0x3b, 0x0c, 0x6b, 0x63, 0x63,
   0x00, 0x7e, 0x3f, 0x3e, 0x7e, 0x3e, 0x0c, 0x60, 0x63, 0x18, 0x18, 0x63,
   0x18, 0x6b, 0x63, 0x3e, 0x00, 0x00, 0x00, 0x00, 0x00, 0x00, 0x00, 0x3e,
   0x00, 0x00, 0x0e, 0x00, 0x00, 0x00, 0x00, 0x00, 0x00, 0x00, 0x00, 0x00,
   0x0c, 0x00, 0x00, 0x00, 0x00, 0x00, 0x00, 0x38, 0x08, 0x0e, 0x6c, 0x00,
   0x00, 0x00, 0x00, 0x00, 0x0c, 0x00, 0x00, 0x00, 0x00, 0x00, 0x00, 0x0c,
   0x08, 0x18, 0x36, 0x00, 0x3f, 0x7e, 0x3f, 0x7e, 0x3e, 0x63, 0x63, 0x6b,
   0x63, 0x63, 0x7f, 0x0c, 0x08, 0x18, 0x00, 0x00, 0x63, 0x63, 0x63, 0x03,
   0x0c, 0x63, 0x63, 0x6b, 0x36, 0x63, 0x30, 0x06, 0x08, 0x30, 0x00, 0x00,
   0x63, 0x63, 0x03, 0x3e, 0x0c, 0x63, 0x63, 0x6b, 0x1c, 0x63, 0x1c, 0x0c,
   0x08, 0x18, 0x00, 0x00, 0x3f, 0x7e, 0x03, 0x60, 0x0c, 0x63, 0x36, 0x6b,
   0x36, 0x7e, 0x06, 0x0c, 0x08, 0x18, 0x00, 0x00, 0x03, 0x60, 0x03, 0x3f,
   0x38, 0x7e, 0x1c, 0x36, 0x63, 0x60, 0x7f, 0x38, 0x08, 0x0e, 0x00, 0x00,
   0x03, 0x60, 0x00, 0x00, 0x00, 0x00, 0x00, 0x00, 0x00, 0x3e, 0x00, 0x00,
   0x08, 0x00, 0x00, 0x00 };
